<?xml version="1.0" encoding="utf-8"?>
<!-- Generator: Adobe Illustrator 14.0.0, SVG Export Plug-In . SVG Version: 6.00 Build 43363)  -->
<!DOCTYPE svg PUBLIC "-//W3C//DTD SVG 1.1//EN" "http://www.w3.org/Graphics/SVG/1.1/DTD/svg11.dtd">
<svg version="1.1" id="svg6040" xmlns:svg="http://www.w3.org/2000/svg"
	 xmlns="http://www.w3.org/2000/svg" xmlns:xlink="http://www.w3.org/1999/xlink" x="0px" y="0px" width="267.75px"
	 height="179.24px" viewBox="0 0 267.75 179.24" enable-background="new 0 0 267.75 179.24" xml:space="preserve">
<g id="layer1" transform="translate(-139.54282,-335.52029)">
	<g id="g8057" transform="matrix(3.2667866,0,0,3.2667866,933.00196,-32.565389)">
		<path id="path7995" fill="#FF794B" d="M-236.96,145.648l-0.003-3.953c0,0,0.208,15.191,0.461,15.191
			c0.252,0,1.652,3.595,4.627,3.595c2.974,0,4.372-3.595,4.623-3.595c0.253,0,0.461-15.191,0.461-15.191v2.089L-236.96,145.648z"/>
		<path id="path8053" fill="#FFFFFF" stroke="#606060" stroke-width="0.3496" stroke-linejoin="round" d="M-230.313,144.313
			c-0.417,0.031-0.833,0.062-1.25,0.094c-0.302,0.062-0.604,0.125-0.906,0.188c0.031,0.375,0.062,0.75,0.094,1.125
			c-0.271-0.333-0.542-0.667-0.813-1c-0.208,0.073-0.417,0.146-0.625,0.219c0.062,0.01,0.125,0.021,0.187,0.031
			c-0.042,0.552-0.083,1.104-0.125,1.656c-0.146-0.583-0.292-1.166-0.437-1.75c-0.646,0.104-1.292,0.208-1.938,0.313
			c-0.167,0.146-0.333,0.291-0.5,0.437c-0.052-0.01-0.104-0.021-0.156-0.031c0.021,0.052,0.042,0.104,0.062,0.156
			c0.062,0.104,0.125,0.208,0.188,0.313c0.073-0.042,0.146-0.083,0.219-0.125c0.167,0.333,0.333,0.667,0.5,1
			c0.469-0.636,0.477-0.212,0.946-0.848c-0.219,0.75,0.023,0.442-0.196,1.192c0.127,0.021,0.253,0.042,0.38,0.063
			c0.155,0.021,0.309,0.041,0.464,0.062c0-0.052,0-0.104,0-0.156c0.25,0.062,0.5,0.125,0.75,0.187
			c-0.01-0.167-0.021-0.333-0.031-0.5c0.49,0,0.979,0,1.469,0c0.021-0.167,0.042-0.333,0.062-0.5
			c0.208,0.115,0.417,0.229,0.625,0.344c0.01,0.083,0.021,0.167,0.031,0.25c0.281-0.187,0.562-0.375,0.844-0.562
			c0.177-0.302,0.354-0.604,0.531-0.906c0.073,0.135,0.146,0.271,0.219,0.406c0.104-0.01,0.208-0.021,0.313-0.031
			c0.448-0.375,0.896-0.75,1.344-1.125c0.073-0.01,0.146-0.021,0.219-0.031c0.177-0.177,0.354-0.354,0.531-0.531
			c0.135-0.167,0.271-0.333,0.406-0.5c-0.385,0.042-0.771,0.083-1.156,0.125c-0.698-0.062-1.396-0.125-2.094-0.187
			C-230.208,143.896-230.26,144.104-230.313,144.313z"/>
		<path id="rect7997" fill="#578DA1" fill-opacity="0.149" d="M-236.857,133.933l9.987-1.864v11.758l-9.987,1.864V133.933z"/>
		<path id="path8055" fill="#CCD8E3" stroke="#9A9A9A" stroke-width="0.3496" d="M-236.903,134.048
			c0.561,1.118,10.398-1.559,9.895-2.025C-227.612,131.462-237.305,133.245-236.903,134.048z"/>
		<g id="g7969" transform="matrix(0.3100285,0,0,0.3100285,47.377454,-152.75399)">
			<path id="path7971" fill="none" stroke="#000000" stroke-width="1.5036" stroke-miterlimit="3.8637" d="M-917.135,896.345
				l-0.008,53.406c0,0,0.671,49,1.486,49c0.813,0,5.328,11.595,14.923,11.595c9.592,0,14.1-11.595,14.912-11.595
				c0.815,0,1.486-49,1.486-49v-53.406H-917.135z"/>
		</g>
		
			<linearGradient id="path7981_1_" gradientUnits="userSpaceOnUse" x1="-586.3512" y1="-258.0394" x2="-557.6637" y2="-258.0394" gradientTransform="matrix(1.0128 0 0 -1.0128 357.5504 -135.5427)">
			<stop  offset="0" style="stop-color:#CDCDCD"/>
			<stop  offset="0.5352" style="stop-color:#FFFFFF"/>
			<stop  offset="1" style="stop-color:#CDCDCD"/>
		</linearGradient>
		<path id="path7981" fill="url(#path7981_1_)" stroke="#9A9A9A" stroke-width="0.3076" stroke-miterlimit="3.8637" d="
			M-227.413,123.978c0,0,0.003,2.126,0.003,2.68c0,0.554-1.991,1.003-4.447,1.003s-4.447-0.449-4.447-1.003c0-0.554,0-2.722,0-2.722
			L-227.413,123.978z"/>
		<path id="path7983" fill="#EBEBEB" stroke="#231F20" stroke-width="0.4661" stroke-miterlimit="3.8637" d="M-222.604,124.478
			v0.714c0,0.751-5.161,1.361-10.106,1.36c-3.331,0-6.03-0.609-6.03-1.36l0.008-0.713L-222.604,124.478z"/>
		<path id="path7985" fill="#EBEBEB" stroke="#231F20" stroke-width="0.4661" stroke-miterlimit="3.8637" d="M-238.734,123.89
			c0-0.752,2.701-1.38,6.03-1.361c4.704,0.027,10.1,0.609,10.1,1.361c0,0.751-5.155,1.361-10.1,1.36
			C-236.035,125.25-238.734,124.641-238.734,123.89z"/>
		
			<ellipse id="ellipse7987" fill="#EBEBEB" stroke="#9A9A9A" stroke-width="0.9921" stroke-miterlimit="3.8637" cx="-231.865" cy="123.906" rx="4.588" ry="0.673"/>
		<path id="path7989" fill="none" stroke="#231F20" stroke-width="0.31" stroke-miterlimit="3.8637" d="M-240.495,123.415
			c-0.177,0.613-0.197,1.28-0.059,2.002"/>
		<path id="path7991" fill="#EBEBEB" stroke="#231F20" stroke-width="0.4661" stroke-miterlimit="3.8637" d="M-236.474,127.94
			c0,0-3.875-0.207-4.082-2.48c-0.207-2.273,2.583-0.93,2.583-0.93l-0.162-1.322c0,0-2.635-1.033-2.428,1.24
			c0.025,0.268-0.075,0.334,0.09,0.296c0.029,0.862,2.277,2.17,3.2,1.914C-237.194,126.98-236.716,127.747-236.474,127.94z"/>
	</g>
	<g id="g6121" transform="matrix(3.2667866,0,0,3.2667866,1105.5646,-37.016856)">
		<path id="path6129" fill="#ECEEEB" stroke="#9A9A9A" stroke-width="0.3496" stroke-opacity="0.5714" d="M-236.903,134.047
			c0.561,1.118,10.398-1.558,9.895-2.025C-227.612,131.462-237.305,133.245-236.903,134.047z"/>
		<g id="g6131" transform="matrix(0.3100285,0,0,0.3100285,47.377454,-152.75399)">
			<path id="path6133" fill="none" stroke="#000000" stroke-width="1.5036" stroke-miterlimit="3.8637" d="M-917.135,896.346
				l-0.009,53.405c0,0,0.671,49,1.486,49c0.813,0,5.328,11.596,14.923,11.596c9.592,0,14.1-11.596,14.912-11.596
				c0.816,0,1.487-49,1.487-49v-53.405H-917.135z"/>
		</g>
		
			<linearGradient id="path6135_1_" gradientUnits="userSpaceOnUse" x1="-639.1747" y1="-256.6768" x2="-610.4868" y2="-256.6768" gradientTransform="matrix(1.0128 0 0 -1.0128 411.0499 -134.1624)">
			<stop  offset="0" style="stop-color:#CDCDCD"/>
			<stop  offset="0.5352" style="stop-color:#FFFFFF"/>
			<stop  offset="1" style="stop-color:#CDCDCD"/>
		</linearGradient>
		<path id="path6135" fill="url(#path6135_1_)" stroke="#9A9A9A" stroke-width="0.3076" stroke-miterlimit="3.8637" d="
			M-227.413,123.978c0,0,0.003,2.125,0.003,2.68c0,0.554-1.991,1.003-4.447,1.003s-4.447-0.449-4.447-1.003c0-0.555,0-2.722,0-2.722
			L-227.413,123.978z"/>
		<path id="path6137" fill="#EBEBEB" stroke="#231F20" stroke-width="0.4661" stroke-miterlimit="3.8637" d="M-222.604,124.479
			v0.714c0,0.752-5.161,1.361-10.106,1.361c-3.331,0-6.03-0.609-6.03-1.361l0.008-0.712L-222.604,124.479z"/>
		<path id="path6139" fill="#EBEBEB" stroke="#231F20" stroke-width="0.4661" stroke-miterlimit="3.8637" d="M-238.734,123.889
			c0-0.752,2.701-1.38,6.03-1.361c4.704,0.027,10.1,0.609,10.1,1.361c0,0.752-5.155,1.361-10.1,1.361
			C-236.035,125.25-238.734,124.641-238.734,123.889z"/>
		
			<ellipse id="ellipse6141" fill="#EBEBEB" stroke="#9A9A9A" stroke-width="0.9921" stroke-miterlimit="3.8637" cx="-231.865" cy="123.906" rx="4.588" ry="0.673"/>
		<path id="path6143" fill="none" stroke="#231F20" stroke-width="0.31" stroke-miterlimit="3.8637" d="M-240.495,123.414
			c-0.177,0.613-0.198,1.28-0.059,2.002"/>
		<path id="path6145" fill="#EBEBEB" stroke="#231F20" stroke-width="0.4661" stroke-miterlimit="3.8637" d="M-236.475,127.94
			c0,0-3.875-0.207-4.082-2.48c-0.207-2.273,2.583-0.93,2.583-0.93l-0.161-1.322c0,0-2.635-1.033-2.428,1.24
			c0.025,0.268-0.075,0.334,0.09,0.295c0.029,0.862,2.277,2.17,3.2,1.915C-237.194,126.98-236.716,127.747-236.475,127.94z"/>
	</g>
	<path id="path11336" fill="#2E3436" d="M277.773,399.71c-26.264-4.353-42.087-2.211-79.773-6.272l0.625,41.344
		c0,0,20.459-9.371,45.594-16c25.135-6.629,54.904-10.396,73.375,0.469l0.781-1.281C308.775,412.321,290.846,399.289,277.773,399.71
		z"/>
	<path id="path11338" fill="#2E3436" d="M323.957,422.112l-11.99-0.092l6.085-10.343L323.957,422.112z"/>
	<g id="g11328" transform="translate(-0.2198671,-0.8429136)">
		<path id="path6149" fill="#FCE94F" d="M277.773,399.71c-26.263-4.354-42.086-2.211-79.772-6.272l0.625,41.344
			c0,0,20.459-9.371,45.594-16s54.904-10.396,73.375,0.469l0.781-1.281C308.775,412.321,290.845,399.289,277.773,399.71z"/>
		<path id="path11334" fill="#FCE94F" d="M323.956,422.112l-11.988-0.092l6.084-10.343L323.956,422.112z"/>
	</g>
	<path id="path11340" fill="#E8E9E5" d="M343.498,485.121c-2.498-1.135-5.256-3.811-7.883-7.651l-1.92-2.809l-0.438-12.283
		c-0.24-6.756-0.598-22.989-0.794-36.073l-0.358-23.791h2.716c5.845-0.002,20.422-3.307,27.765-6.294
		c0.832-0.339,0.881,1.045,0.871,24.996c-0.004,13.944-0.227,31.688-0.492,39.43l-0.482,14.076l-1.598,2.288
		c-2.635,3.772-6.094,7.117-8.41,8.13C349.709,486.35,346.188,486.343,343.498,485.121L343.498,485.121z"/>
	<path id="path11348" fill="#729FCF" stroke="#000000" d="M333.92,476.831c0,0,3.645,0.629,5.278,2.514s1.822,5.593,1.822,5.593
		C337.162,482.286,335.717,479.8,333.92,476.831z"/>
	<path id="path11350" fill="none" stroke="#2E3436" stroke-linejoin="round" d="M344.519,479.435
		c0.006,4.905-3.966,8.887-8.872,8.893c-4.906,0.007-8.887-3.966-8.894-8.871c0-0.008,0-0.015,0-0.021
		c-0.006-4.906,3.966-8.888,8.872-8.894s8.887,3.966,8.894,8.871C344.519,479.42,344.519,479.427,344.519,479.435z"/>
	<path id="text11354" d="M139.543,342.679v-7.158h2.7c0.475,0,0.838,0.022,1.089,0.068c0.352,0.059,0.646,0.17,0.884,0.334
		c0.238,0.165,0.429,0.396,0.574,0.691s0.217,0.621,0.217,0.977c0,0.608-0.194,1.124-0.581,1.545
		c-0.387,0.422-1.087,0.633-2.1,0.633h-1.836v2.91H139.543z M140.49,338.924h1.851c0.612,0,1.046-0.114,1.304-0.342
		s0.386-0.549,0.386-0.962c0-0.3-0.076-0.556-0.227-0.77c-0.151-0.213-0.351-0.354-0.598-0.422c-0.16-0.042-0.454-0.063-0.884-0.063
		h-1.831V338.924z M146.11,342.679v-7.158h0.879v2.568c0.41-0.476,0.928-0.713,1.553-0.713c0.384,0,0.718,0.075,1.001,0.227
		s0.486,0.36,0.608,0.628c0.122,0.267,0.183,0.654,0.183,1.162v3.286h-0.879v-3.286c0-0.439-0.095-0.76-0.286-0.96
		s-0.46-0.3-0.808-0.3c-0.26,0-0.505,0.067-0.735,0.202c-0.229,0.136-0.393,0.318-0.491,0.55s-0.146,0.55-0.146,0.957v2.837H146.11z
		 M155.061,342.039c-0.326,0.276-0.639,0.472-0.94,0.586c-0.301,0.113-0.624,0.171-0.969,0.171c-0.57,0-1.007-0.14-1.313-0.418
		s-0.459-0.634-0.459-1.066c0-0.254,0.058-0.486,0.173-0.696s0.267-0.378,0.454-0.505s0.398-0.224,0.632-0.288
		c0.172-0.046,0.433-0.09,0.781-0.132c0.709-0.085,1.232-0.186,1.567-0.303c0.003-0.121,0.005-0.197,0.005-0.229
		c0-0.358-0.083-0.61-0.249-0.757c-0.225-0.199-0.558-0.298-1.001-0.298c-0.414,0-0.719,0.072-0.916,0.217
		c-0.197,0.146-0.343,0.401-0.437,0.77l-0.859-0.117c0.078-0.368,0.207-0.665,0.386-0.892c0.179-0.226,0.438-0.4,0.776-0.522
		s0.731-0.183,1.177-0.183c0.443,0,0.802,0.052,1.079,0.156c0.277,0.104,0.48,0.235,0.61,0.393c0.13,0.158,0.221,0.357,0.273,0.599
		c0.029,0.149,0.044,0.42,0.044,0.811v1.172c0,0.816,0.019,1.334,0.056,1.55c0.038,0.217,0.111,0.424,0.222,0.623h-0.918
		C155.145,342.496,155.086,342.283,155.061,342.039L155.061,342.039z M154.987,340.076c-0.319,0.13-0.797,0.241-1.436,0.332
		c-0.361,0.052-0.617,0.11-0.767,0.176c-0.15,0.064-0.265,0.16-0.347,0.285c-0.082,0.126-0.122,0.265-0.122,0.418
		c0,0.234,0.089,0.43,0.266,0.586s0.437,0.234,0.779,0.234c0.338,0,0.64-0.074,0.903-0.223c0.264-0.147,0.458-0.351,0.581-0.607
		c0.094-0.199,0.142-0.491,0.142-0.879V340.076z M156.892,341.131l0.869-0.137c0.049,0.349,0.185,0.615,0.408,0.801
		s0.535,0.278,0.935,0.278c0.404,0,0.703-0.082,0.898-0.247c0.195-0.164,0.293-0.357,0.293-0.578c0-0.199-0.086-0.355-0.259-0.469
		c-0.121-0.078-0.42-0.178-0.898-0.298c-0.645-0.163-1.091-0.304-1.34-0.423c-0.249-0.118-0.438-0.283-0.566-0.493
		s-0.193-0.441-0.193-0.695c0-0.231,0.053-0.445,0.159-0.643c0.106-0.196,0.25-0.36,0.432-0.49c0.137-0.102,0.323-0.187,0.559-0.257
		c0.236-0.069,0.489-0.104,0.759-0.104c0.407,0,0.764,0.059,1.072,0.176s0.535,0.275,0.681,0.476s0.248,0.469,0.303,0.804
		l-0.859,0.117c-0.039-0.267-0.152-0.476-0.339-0.625c-0.187-0.15-0.452-0.225-0.793-0.225c-0.404,0-0.692,0.066-0.864,0.2
		c-0.172,0.133-0.259,0.289-0.259,0.469c0,0.113,0.036,0.216,0.107,0.308c0.072,0.095,0.184,0.172,0.337,0.234
		c0.088,0.032,0.347,0.107,0.776,0.225c0.622,0.166,1.056,0.302,1.301,0.407c0.246,0.106,0.438,0.26,0.579,0.462
		c0.14,0.201,0.21,0.452,0.21,0.752c0,0.293-0.085,0.568-0.256,0.827s-0.417,0.459-0.74,0.601s-0.687,0.213-1.094,0.213
		c-0.674,0-1.188-0.141-1.541-0.42C157.215,342.096,156.989,341.681,156.892,341.131L156.892,341.131z M165.793,341.009l0.908,0.112
		c-0.143,0.53-0.409,0.942-0.796,1.235s-0.882,0.439-1.484,0.439c-0.758,0-1.36-0.233-1.804-0.701
		c-0.444-0.467-0.667-1.122-0.667-1.965c0-0.872,0.225-1.55,0.674-2.031c0.449-0.482,1.032-0.723,1.748-0.723
		c0.693,0,1.26,0.235,1.699,0.708c0.439,0.472,0.659,1.136,0.659,1.992c0,0.052-0.001,0.13-0.005,0.234h-3.867
		c0.033,0.569,0.194,1.006,0.483,1.309s0.651,0.454,1.084,0.454c0.322,0,0.597-0.085,0.825-0.254
		C165.479,341.649,165.66,341.38,165.793,341.009L165.793,341.009z M162.907,339.588h2.896c-0.039-0.437-0.15-0.764-0.332-0.981
		c-0.28-0.339-0.643-0.508-1.089-0.508c-0.404,0-0.743,0.135-1.018,0.405C163.089,338.773,162.937,339.136,162.907,339.588
		L162.907,339.588z M170.231,341.131l0.869-0.137c0.049,0.349,0.185,0.615,0.408,0.801s0.535,0.278,0.935,0.278
		c0.404,0,0.703-0.082,0.898-0.247c0.195-0.164,0.293-0.357,0.293-0.578c0-0.199-0.086-0.355-0.259-0.469
		c-0.121-0.078-0.42-0.178-0.898-0.298c-0.645-0.163-1.091-0.304-1.34-0.423c-0.249-0.118-0.438-0.283-0.566-0.493
		s-0.193-0.441-0.193-0.695c0-0.231,0.053-0.445,0.159-0.643c0.106-0.196,0.25-0.36,0.432-0.49c0.137-0.102,0.323-0.187,0.559-0.257
		c0.236-0.069,0.489-0.104,0.759-0.104c0.407,0,0.764,0.059,1.072,0.176s0.535,0.275,0.681,0.476s0.248,0.469,0.303,0.804
		l-0.859,0.117c-0.039-0.267-0.152-0.476-0.339-0.625c-0.187-0.15-0.452-0.225-0.793-0.225c-0.404,0-0.692,0.066-0.864,0.2
		c-0.172,0.133-0.259,0.289-0.259,0.469c0,0.113,0.036,0.216,0.107,0.308c0.072,0.095,0.184,0.172,0.337,0.234
		c0.088,0.032,0.347,0.107,0.776,0.225c0.622,0.166,1.056,0.302,1.301,0.407c0.246,0.106,0.438,0.26,0.579,0.462
		c0.14,0.201,0.21,0.452,0.21,0.752c0,0.293-0.085,0.568-0.256,0.827s-0.417,0.459-0.74,0.601s-0.687,0.213-1.094,0.213
		c-0.674,0-1.188-0.141-1.541-0.42C170.555,342.096,170.329,341.681,170.231,341.131L170.231,341.131z M179.133,341.009l0.908,0.112
		c-0.143,0.53-0.409,0.942-0.796,1.235s-0.882,0.439-1.484,0.439c-0.758,0-1.36-0.233-1.804-0.701
		c-0.444-0.467-0.667-1.122-0.667-1.965c0-0.872,0.225-1.55,0.674-2.031c0.449-0.482,1.032-0.723,1.748-0.723
		c0.693,0,1.26,0.235,1.699,0.708c0.439,0.472,0.659,1.136,0.659,1.992c0,0.052-0.001,0.13-0.005,0.234h-3.867
		c0.033,0.569,0.194,1.006,0.483,1.309s0.651,0.454,1.084,0.454c0.322,0,0.597-0.085,0.825-0.254
		C178.819,341.649,179,341.38,179.133,341.009L179.133,341.009z M176.247,339.588h2.896c-0.039-0.437-0.15-0.764-0.332-0.981
		c-0.28-0.339-0.643-0.508-1.089-0.508c-0.404,0-0.743,0.135-1.018,0.405C176.429,338.773,176.276,339.136,176.247,339.588
		L176.247,339.588z M181.149,344.666v-7.173h0.801v0.674c0.189-0.264,0.402-0.462,0.64-0.594s0.526-0.197,0.864-0.197
		c0.443,0,0.833,0.113,1.172,0.342c0.338,0.228,0.594,0.549,0.767,0.964s0.259,0.87,0.259,1.365c0,0.53-0.095,1.008-0.286,1.433
		s-0.467,0.751-0.83,0.977c-0.363,0.227-0.745,0.34-1.145,0.34c-0.293,0-0.556-0.062-0.789-0.186
		c-0.233-0.124-0.424-0.28-0.574-0.469v2.524H181.149z M181.945,340.115c0,0.667,0.135,1.16,0.405,1.479
		c0.27,0.318,0.597,0.479,0.981,0.479c0.391,0,0.725-0.165,1.003-0.496c0.278-0.33,0.417-0.842,0.417-1.535
		c0-0.661-0.136-1.156-0.408-1.484c-0.272-0.329-0.597-0.493-0.974-0.493c-0.375,0-0.706,0.175-0.994,0.524
		C182.089,338.94,181.945,339.448,181.945,340.115L181.945,340.115z M190.1,342.039c-0.326,0.276-0.639,0.472-0.94,0.586
		c-0.301,0.113-0.624,0.171-0.969,0.171c-0.57,0-1.007-0.14-1.313-0.418s-0.459-0.634-0.459-1.066c0-0.254,0.058-0.486,0.173-0.696
		s0.267-0.378,0.454-0.505s0.398-0.224,0.632-0.288c0.172-0.046,0.433-0.09,0.781-0.132c0.709-0.085,1.232-0.186,1.567-0.303
		c0.003-0.121,0.005-0.197,0.005-0.229c0-0.358-0.083-0.61-0.249-0.757c-0.225-0.199-0.558-0.298-1.001-0.298
		c-0.414,0-0.719,0.072-0.916,0.217c-0.197,0.146-0.343,0.401-0.437,0.77l-0.859-0.117c0.078-0.368,0.207-0.665,0.386-0.892
		c0.179-0.226,0.438-0.4,0.776-0.522s0.731-0.183,1.177-0.183c0.443,0,0.802,0.052,1.079,0.156c0.277,0.104,0.48,0.235,0.61,0.393
		c0.13,0.158,0.221,0.357,0.273,0.599c0.029,0.149,0.044,0.42,0.044,0.811v1.172c0,0.816,0.019,1.334,0.056,1.55
		c0.038,0.217,0.111,0.424,0.222,0.623h-0.918C190.184,342.496,190.125,342.283,190.1,342.039L190.1,342.039z M190.026,340.076
		c-0.319,0.13-0.797,0.241-1.436,0.332c-0.361,0.052-0.617,0.11-0.767,0.176c-0.15,0.064-0.265,0.16-0.347,0.285
		c-0.082,0.126-0.122,0.265-0.122,0.418c0,0.234,0.089,0.43,0.266,0.586s0.437,0.234,0.779,0.234c0.338,0,0.64-0.074,0.903-0.223
		c0.264-0.147,0.458-0.351,0.581-0.607c0.094-0.199,0.142-0.491,0.142-0.879V340.076z M192.272,342.679v-5.186h0.791v0.786
		c0.202-0.368,0.388-0.61,0.559-0.728s0.359-0.176,0.564-0.176c0.296,0,0.597,0.095,0.903,0.283l-0.303,0.815
		c-0.215-0.127-0.43-0.19-0.645-0.19c-0.192,0-0.365,0.058-0.518,0.173c-0.153,0.116-0.262,0.276-0.327,0.481
		c-0.098,0.312-0.146,0.654-0.146,1.025v2.715H192.272z M199.006,342.039c-0.326,0.276-0.639,0.472-0.94,0.586
		c-0.301,0.113-0.624,0.171-0.969,0.171c-0.57,0-1.007-0.14-1.313-0.418s-0.459-0.634-0.459-1.066c0-0.254,0.058-0.486,0.173-0.696
		s0.267-0.378,0.454-0.505s0.398-0.224,0.632-0.288c0.172-0.046,0.433-0.09,0.781-0.132c0.709-0.085,1.232-0.186,1.567-0.303
		c0.003-0.121,0.005-0.197,0.005-0.229c0-0.358-0.083-0.61-0.249-0.757c-0.225-0.199-0.558-0.298-1.001-0.298
		c-0.414,0-0.719,0.072-0.916,0.217c-0.197,0.146-0.343,0.401-0.437,0.77l-0.859-0.117c0.078-0.368,0.207-0.665,0.386-0.892
		c0.179-0.226,0.438-0.4,0.776-0.522s0.731-0.183,1.177-0.183c0.443,0,0.802,0.052,1.079,0.156c0.277,0.104,0.48,0.235,0.61,0.393
		c0.13,0.158,0.221,0.357,0.273,0.599c0.029,0.149,0.044,0.42,0.044,0.811v1.172c0,0.816,0.019,1.334,0.056,1.55
		c0.038,0.217,0.111,0.424,0.222,0.623h-0.918C199.09,342.496,199.032,342.283,199.006,342.039L199.006,342.039z M198.933,340.076
		c-0.319,0.13-0.797,0.241-1.436,0.332c-0.361,0.052-0.617,0.11-0.767,0.176c-0.15,0.064-0.265,0.16-0.347,0.285
		c-0.082,0.126-0.122,0.265-0.122,0.418c0,0.234,0.089,0.43,0.266,0.586s0.437,0.234,0.779,0.234c0.338,0,0.64-0.074,0.903-0.223
		c0.264-0.147,0.458-0.351,0.581-0.607c0.094-0.199,0.142-0.491,0.142-0.879V340.076z M203.107,341.893l0.127,0.776
		c-0.248,0.052-0.469,0.078-0.664,0.078c-0.319,0-0.566-0.051-0.742-0.151c-0.176-0.102-0.299-0.233-0.371-0.398
		c-0.072-0.164-0.107-0.51-0.107-1.037v-2.983h-0.645v-0.684h0.645v-1.284l0.874-0.527v1.812h0.884v0.684h-0.884v3.032
		c0,0.25,0.016,0.412,0.046,0.483s0.082,0.128,0.151,0.171c0.07,0.042,0.17,0.063,0.3,0.063
		C202.819,341.927,202.948,341.915,203.107,341.893L203.107,341.893z M203.967,336.531v-1.011h0.879v1.011H203.967z
		 M203.967,342.679v-5.186h0.879v5.186H203.967z M205.861,340.086c0-0.961,0.267-1.672,0.801-2.134
		c0.446-0.384,0.99-0.576,1.631-0.576c0.713,0,1.295,0.233,1.748,0.7c0.453,0.468,0.679,1.113,0.679,1.937
		c0,0.667-0.1,1.192-0.3,1.574c-0.2,0.383-0.492,0.68-0.874,0.892c-0.382,0.211-0.8,0.317-1.252,0.317
		c-0.726,0-1.312-0.233-1.76-0.698C206.085,341.632,205.861,340.961,205.861,340.086L205.861,340.086z M206.765,340.086
		c0,0.664,0.145,1.161,0.435,1.491c0.29,0.331,0.654,0.496,1.094,0.496c0.436,0,0.799-0.166,1.089-0.498s0.435-0.839,0.435-1.519
		c0-0.642-0.146-1.127-0.437-1.458c-0.292-0.33-0.653-0.495-1.086-0.495c-0.439,0-0.804,0.164-1.094,0.493
		S206.765,339.422,206.765,340.086L206.765,340.086z M211.755,342.679v-5.186h0.791v0.737c0.381-0.569,0.931-0.854,1.65-0.854
		c0.312,0,0.6,0.056,0.862,0.168s0.458,0.26,0.588,0.442c0.13,0.182,0.221,0.398,0.273,0.649c0.033,0.162,0.049,0.447,0.049,0.854
		v3.188h-0.879v-3.154c0-0.358-0.034-0.626-0.103-0.804c-0.068-0.177-0.189-0.318-0.364-0.425c-0.174-0.105-0.378-0.158-0.613-0.158
		c-0.375,0-0.697,0.118-0.969,0.356c-0.272,0.237-0.408,0.688-0.408,1.353v2.832H211.755z"/>
	<path id="text11364" fill="#2E3436" d="M238.665,500.774c0-1.188,0.319-2.118,0.957-2.79c0.638-0.673,1.461-1.009,2.471-1.009
		c0.661,0,1.256,0.158,1.787,0.474c0.531,0.316,0.935,0.756,1.213,1.321c0.278,0.564,0.417,1.205,0.417,1.921
		c0,0.727-0.146,1.376-0.439,1.948c-0.293,0.573-0.708,1.007-1.245,1.302c-0.537,0.294-1.117,0.441-1.738,0.441
		c-0.674,0-1.276-0.162-1.807-0.488c-0.531-0.325-0.933-0.77-1.206-1.333C238.801,501.999,238.665,501.403,238.665,500.774
		L238.665,500.774z M239.641,500.789c0,0.863,0.232,1.542,0.696,2.039c0.464,0.496,1.046,0.744,1.746,0.744
		c0.713,0,1.3-0.25,1.76-0.752c0.46-0.501,0.691-1.212,0.691-2.134c0-0.582-0.099-1.091-0.295-1.525s-0.485-0.771-0.864-1.011
		s-0.805-0.359-1.277-0.359c-0.67,0-1.248,0.23-1.731,0.691C239.883,498.942,239.641,499.712,239.641,500.789L239.641,500.789z
		 M246.604,504.261v-5.186h0.791v0.786c0.202-0.367,0.388-0.61,0.559-0.728s0.359-0.176,0.564-0.176
		c0.296,0,0.597,0.095,0.903,0.283l-0.303,0.815c-0.215-0.127-0.43-0.19-0.645-0.19c-0.192,0-0.365,0.058-0.518,0.174
		c-0.153,0.115-0.262,0.275-0.327,0.48c-0.098,0.312-0.146,0.654-0.146,1.025v2.715H246.604z M249.792,504.69l0.854,0.127
		c0.036,0.264,0.135,0.456,0.298,0.576c0.218,0.163,0.516,0.244,0.894,0.244c0.407,0,0.721-0.081,0.942-0.244
		c0.221-0.162,0.371-0.391,0.449-0.684c0.045-0.179,0.067-0.555,0.063-1.128c-0.384,0.453-0.863,0.679-1.436,0.679
		c-0.713,0-1.265-0.257-1.655-0.771c-0.391-0.514-0.586-1.131-0.586-1.851c0-0.494,0.089-0.951,0.269-1.369
		c0.179-0.419,0.438-0.741,0.779-0.97c0.34-0.228,0.74-0.342,1.199-0.342c0.612,0,1.117,0.248,1.514,0.742v-0.625h0.811v4.482
		c0,0.808-0.082,1.38-0.247,1.717s-0.425,0.603-0.781,0.798s-0.795,0.293-1.316,0.293c-0.619,0-1.118-0.139-1.499-0.417
		S249.779,505.251,249.792,504.69L249.792,504.69z M250.52,501.575c0,0.681,0.135,1.177,0.405,1.489s0.609,0.469,1.016,0.469
		c0.404,0,0.742-0.155,1.016-0.466c0.273-0.312,0.41-0.799,0.41-1.463c0-0.635-0.141-1.113-0.422-1.436s-0.621-0.483-1.018-0.483
		c-0.391,0-0.723,0.159-0.996,0.477S250.52,500.95,250.52,501.575L250.52,501.575z M258.904,503.621
		c-0.326,0.277-0.639,0.473-0.94,0.586c-0.301,0.114-0.624,0.171-0.969,0.171c-0.57,0-1.007-0.139-1.313-0.417
		s-0.459-0.634-0.459-1.067c0-0.254,0.058-0.485,0.173-0.695s0.267-0.379,0.454-0.506s0.398-0.223,0.632-0.288
		c0.172-0.045,0.433-0.089,0.781-0.132c0.709-0.084,1.232-0.186,1.567-0.303c0.003-0.12,0.005-0.196,0.005-0.229
		c0-0.357-0.083-0.61-0.249-0.757c-0.225-0.198-0.558-0.298-1.001-0.298c-0.414,0-0.719,0.072-0.916,0.218
		c-0.197,0.145-0.343,0.401-0.437,0.769l-0.859-0.117c0.078-0.367,0.207-0.665,0.386-0.891c0.179-0.227,0.438-0.4,0.776-0.522
		s0.731-0.184,1.177-0.184c0.443,0,0.802,0.053,1.079,0.156c0.277,0.104,0.48,0.235,0.61,0.394c0.13,0.157,0.221,0.357,0.273,0.598
		c0.029,0.15,0.044,0.42,0.044,0.811v1.172c0,0.817,0.019,1.334,0.056,1.551c0.038,0.216,0.111,0.424,0.222,0.622h-0.918
		C258.988,504.079,258.93,503.865,258.904,503.621L258.904,503.621z M258.831,501.658c-0.319,0.131-0.797,0.241-1.436,0.332
		c-0.361,0.053-0.617,0.111-0.767,0.176c-0.15,0.065-0.265,0.16-0.347,0.286c-0.082,0.125-0.122,0.265-0.122,0.417
		c0,0.234,0.089,0.43,0.266,0.586s0.437,0.234,0.779,0.234c0.338,0,0.64-0.074,0.903-0.222c0.264-0.148,0.458-0.351,0.581-0.608
		c0.094-0.198,0.142-0.491,0.142-0.879V501.658z M261.086,504.261v-5.186h0.791v0.737c0.381-0.569,0.931-0.854,1.65-0.854
		c0.312,0,0.6,0.057,0.862,0.169s0.458,0.26,0.588,0.441c0.13,0.183,0.221,0.399,0.273,0.649c0.033,0.163,0.049,0.448,0.049,0.854
		v3.188h-0.879v-3.154c0-0.357-0.034-0.626-0.103-0.803c-0.068-0.178-0.189-0.319-0.364-0.425c-0.174-0.106-0.378-0.159-0.613-0.159
		c-0.375,0-0.697,0.119-0.969,0.356c-0.272,0.238-0.408,0.688-0.408,1.353v2.832H261.086z M266.658,498.113v-1.011h0.879v1.011
		H266.658z M266.658,504.261v-5.186h0.879v5.186H266.658z M272.263,502.361l0.864,0.112c-0.094,0.596-0.336,1.062-0.725,1.399
		s-0.867,0.505-1.433,0.505c-0.709,0-1.28-0.231-1.711-0.695s-0.647-1.129-0.647-1.995c0-0.56,0.093-1.05,0.278-1.47
		s0.468-0.734,0.847-0.944s0.792-0.315,1.238-0.315c0.563,0,1.024,0.143,1.382,0.428c0.358,0.284,0.587,0.689,0.688,1.213
		l-0.854,0.132c-0.082-0.348-0.226-0.61-0.432-0.786s-0.457-0.264-0.75-0.264c-0.443,0-0.802,0.159-1.079,0.477
		s-0.415,0.819-0.415,1.506c0,0.697,0.133,1.203,0.4,1.519c0.267,0.316,0.615,0.474,1.045,0.474c0.345,0,0.633-0.105,0.864-0.317
		C272.055,503.127,272.201,502.801,272.263,502.361L272.263,502.361z M276.652,506.248v-7.173h0.801v0.674
		c0.189-0.264,0.402-0.461,0.641-0.593c0.237-0.132,0.525-0.198,0.863-0.198c0.443,0,0.834,0.114,1.172,0.342
		c0.339,0.229,0.595,0.55,0.768,0.965c0.172,0.415,0.258,0.87,0.258,1.364c0,0.531-0.095,1.009-0.285,1.434s-0.467,0.75-0.83,0.977
		c-0.363,0.226-0.744,0.339-1.145,0.339c-0.293,0-0.557-0.062-0.789-0.186c-0.232-0.123-0.424-0.279-0.574-0.469v2.524H276.652z
		 M277.449,501.697c0,0.668,0.135,1.161,0.404,1.479c0.271,0.319,0.598,0.479,0.982,0.479c0.391,0,0.725-0.165,1.003-0.495
		c0.278-0.331,0.417-0.843,0.417-1.536c0-0.66-0.135-1.155-0.407-1.484c-0.272-0.328-0.597-0.493-0.974-0.493
		c-0.375,0-0.706,0.175-0.994,0.525C277.593,500.522,277.449,501.03,277.449,501.697L277.449,501.697z M282.219,504.261v-7.158
		h0.879v2.568c0.41-0.475,0.928-0.713,1.553-0.713c0.385,0,0.719,0.076,1.002,0.228s0.485,0.36,0.607,0.627
		c0.122,0.268,0.184,0.654,0.184,1.162v3.286h-0.879v-3.286c0-0.439-0.096-0.759-0.286-0.959s-0.46-0.301-0.808-0.301
		c-0.261,0-0.506,0.067-0.735,0.203c-0.229,0.135-0.394,0.318-0.491,0.549c-0.098,0.231-0.146,0.551-0.146,0.957v2.837H282.219z
		 M291.17,503.621c-0.326,0.277-0.639,0.473-0.94,0.586c-0.302,0.114-0.624,0.171-0.97,0.171c-0.569,0-1.007-0.139-1.312-0.417
		c-0.307-0.278-0.459-0.634-0.459-1.067c0-0.254,0.057-0.485,0.173-0.695s0.267-0.379,0.454-0.506s0.398-0.223,0.633-0.288
		c0.172-0.045,0.433-0.089,0.781-0.132c0.709-0.084,1.231-0.186,1.566-0.303c0.004-0.12,0.006-0.196,0.006-0.229
		c0-0.357-0.084-0.61-0.25-0.757c-0.225-0.198-0.558-0.298-1-0.298c-0.414,0-0.719,0.072-0.916,0.218
		c-0.197,0.145-0.343,0.401-0.438,0.769l-0.859-0.117c0.078-0.367,0.207-0.665,0.387-0.891c0.179-0.227,0.438-0.4,0.775-0.522
		c0.339-0.122,0.731-0.184,1.178-0.184c0.442,0,0.802,0.053,1.078,0.156c0.277,0.104,0.48,0.235,0.611,0.394
		c0.13,0.157,0.221,0.357,0.273,0.598c0.029,0.15,0.043,0.42,0.043,0.811v1.172c0,0.817,0.02,1.334,0.057,1.551
		c0.037,0.216,0.111,0.424,0.223,0.622h-0.918C291.254,504.079,291.195,503.865,291.17,503.621L291.17,503.621z M291.096,501.658
		c-0.318,0.131-0.797,0.241-1.436,0.332c-0.361,0.053-0.616,0.111-0.766,0.176c-0.15,0.065-0.266,0.16-0.348,0.286
		c-0.081,0.125-0.121,0.265-0.121,0.417c0,0.234,0.088,0.43,0.266,0.586s0.438,0.234,0.779,0.234c0.338,0,0.639-0.074,0.902-0.222
		c0.264-0.148,0.458-0.351,0.582-0.608c0.094-0.198,0.141-0.491,0.141-0.879V501.658z M293,502.713l0.869-0.137
		c0.049,0.349,0.186,0.615,0.408,0.801s0.535,0.278,0.936,0.278c0.403,0,0.703-0.082,0.898-0.246
		c0.195-0.165,0.293-0.357,0.293-0.579c0-0.198-0.087-0.354-0.26-0.469c-0.12-0.078-0.42-0.177-0.898-0.298
		c-0.645-0.162-1.091-0.304-1.34-0.422c-0.249-0.119-0.438-0.283-0.566-0.493s-0.193-0.442-0.193-0.696
		c0-0.23,0.053-0.445,0.159-0.642c0.106-0.197,0.25-0.36,0.433-0.491c0.137-0.101,0.322-0.187,0.559-0.256
		c0.236-0.07,0.489-0.105,0.76-0.105c0.406,0,0.764,0.059,1.071,0.176s0.534,0.276,0.681,0.477s0.248,0.468,0.303,0.803
		l-0.859,0.117c-0.039-0.267-0.152-0.475-0.339-0.625c-0.187-0.149-0.452-0.225-0.794-0.225c-0.403,0-0.691,0.067-0.863,0.2
		c-0.173,0.134-0.26,0.29-0.26,0.469c0,0.114,0.036,0.217,0.107,0.308c0.072,0.095,0.185,0.173,0.338,0.234
		c0.088,0.033,0.346,0.107,0.775,0.225c0.622,0.166,1.057,0.302,1.302,0.408c0.245,0.105,0.438,0.26,0.579,0.461
		c0.14,0.202,0.209,0.453,0.209,0.752c0,0.293-0.085,0.569-0.256,0.828s-0.418,0.459-0.74,0.601s-0.687,0.212-1.094,0.212
		c-0.674,0-1.188-0.14-1.54-0.42C293.324,503.679,293.098,503.264,293,502.713L293,502.713z M301.902,502.591l0.908,0.112
		c-0.144,0.531-0.409,0.942-0.797,1.235c-0.387,0.293-0.882,0.439-1.484,0.439c-0.758,0-1.359-0.233-1.804-0.7
		c-0.444-0.468-0.667-1.122-0.667-1.966c0-0.872,0.225-1.549,0.674-2.031c0.449-0.481,1.032-0.723,1.748-0.723
		c0.693,0,1.26,0.236,1.699,0.708c0.439,0.473,0.66,1.137,0.66,1.992c0,0.053-0.002,0.131-0.006,0.234h-3.867
		c0.033,0.57,0.194,1.006,0.484,1.309c0.289,0.303,0.65,0.454,1.084,0.454c0.322,0,0.597-0.084,0.824-0.254
		C301.588,503.232,301.769,502.962,301.902,502.591L301.902,502.591z M299.016,501.17h2.896c-0.039-0.436-0.15-0.763-0.332-0.981
		c-0.28-0.338-0.644-0.508-1.09-0.508c-0.403,0-0.742,0.136-1.018,0.405C299.197,500.357,299.045,500.718,299.016,501.17
		L299.016,501.17z"/>
	<path id="text11368" fill="#2E3436" d="M238.665,487.039v-7.158h0.947v7.158H238.665z M241.165,487.039v-5.186h0.791v0.737
		c0.381-0.569,0.931-0.854,1.65-0.854c0.312,0,0.6,0.057,0.862,0.169s0.458,0.259,0.588,0.441s0.221,0.398,0.273,0.649
		c0.033,0.163,0.049,0.447,0.049,0.854v3.188H244.5v-3.154c0-0.358-0.034-0.626-0.103-0.803c-0.068-0.178-0.189-0.319-0.364-0.425
		c-0.174-0.106-0.378-0.159-0.613-0.159c-0.375,0-0.697,0.119-0.969,0.356s-0.408,0.688-0.408,1.353v2.832H241.165z M248.65,486.253
		l0.127,0.776c-0.248,0.052-0.469,0.078-0.664,0.078c-0.319,0-0.566-0.051-0.742-0.151s-0.299-0.233-0.371-0.397
		c-0.072-0.165-0.107-0.511-0.107-1.038v-2.983h-0.645v-0.684h0.645v-1.284l0.874-0.527v1.812h0.884v0.684h-0.884v3.032
		c0,0.251,0.016,0.412,0.046,0.483s0.082,0.129,0.151,0.171s0.17,0.063,0.3,0.063C248.362,486.287,248.49,486.275,248.65,486.253
		L248.65,486.253z M253.054,485.369l0.908,0.112c-0.143,0.53-0.409,0.942-0.796,1.235s-0.882,0.439-1.484,0.439
		c-0.758,0-1.36-0.233-1.804-0.7c-0.444-0.468-0.667-1.123-0.667-1.966c0-0.872,0.225-1.55,0.674-2.031s1.032-0.723,1.748-0.723
		c0.693,0,1.26,0.236,1.699,0.708s0.659,1.136,0.659,1.992c0,0.052-0.001,0.13-0.005,0.234h-3.867
		c0.033,0.569,0.194,1.006,0.483,1.309s0.651,0.454,1.084,0.454c0.322,0,0.597-0.085,0.825-0.254S252.921,485.74,253.054,485.369
		L253.054,485.369z M250.168,483.948h2.896c-0.039-0.437-0.15-0.764-0.332-0.981c-0.28-0.339-0.643-0.508-1.089-0.508
		c-0.404,0-0.743,0.135-1.018,0.405S250.198,483.496,250.168,483.948L250.168,483.948z M255.061,487.039v-5.186h0.791v0.786
		c0.202-0.368,0.388-0.61,0.559-0.728s0.359-0.176,0.564-0.176c0.296,0,0.597,0.095,0.903,0.283l-0.303,0.815
		c-0.215-0.127-0.43-0.19-0.645-0.19c-0.192,0-0.365,0.058-0.518,0.174c-0.153,0.115-0.262,0.275-0.327,0.48
		c-0.098,0.312-0.146,0.654-0.146,1.025v2.715H255.061z M258.411,489.026v-7.173h0.801v0.674c0.189-0.264,0.402-0.461,0.64-0.593
		s0.526-0.198,0.864-0.198c0.443,0,0.833,0.114,1.172,0.342s0.594,0.55,0.767,0.965s0.259,0.869,0.259,1.364
		c0,0.53-0.095,1.009-0.286,1.434s-0.467,0.75-0.83,0.977c-0.363,0.226-0.745,0.339-1.145,0.339c-0.293,0-0.556-0.062-0.789-0.186
		s-0.424-0.28-0.574-0.469v2.524H258.411z M259.207,484.476c0,0.667,0.135,1.16,0.405,1.479s0.597,0.479,0.981,0.479
		c0.391,0,0.725-0.165,1.003-0.495c0.278-0.331,0.417-0.843,0.417-1.536c0-0.661-0.136-1.155-0.408-1.484s-0.597-0.493-0.974-0.493
		c-0.375,0-0.706,0.175-0.994,0.525C259.351,483.3,259.207,483.809,259.207,484.476L259.207,484.476z M263.977,487.039v-7.158h0.879
		v2.568c0.41-0.476,0.928-0.713,1.553-0.713c0.384,0,0.718,0.076,1.001,0.228s0.486,0.36,0.608,0.627s0.183,0.654,0.183,1.162v3.286
		h-0.879v-3.286c0-0.439-0.095-0.759-0.286-0.959s-0.46-0.301-0.808-0.301c-0.26,0-0.505,0.067-0.735,0.203
		c-0.229,0.135-0.393,0.317-0.491,0.549s-0.146,0.55-0.146,0.957v2.837H263.977z M272.927,486.399
		c-0.326,0.276-0.639,0.472-0.94,0.586s-0.624,0.171-0.969,0.171c-0.57,0-1.007-0.139-1.313-0.417s-0.459-0.635-0.459-1.067
		c0-0.254,0.058-0.485,0.173-0.695s0.267-0.379,0.454-0.506s0.398-0.223,0.632-0.288c0.172-0.046,0.433-0.09,0.781-0.132
		c0.709-0.085,1.232-0.186,1.567-0.303c0.003-0.12,0.005-0.197,0.005-0.229c0-0.358-0.083-0.61-0.249-0.757
		c-0.225-0.198-0.558-0.298-1.001-0.298c-0.414,0-0.719,0.072-0.916,0.218c-0.197,0.145-0.343,0.4-0.437,0.769l-0.859-0.117
		c0.078-0.368,0.207-0.665,0.386-0.891c0.179-0.227,0.438-0.4,0.776-0.522s0.731-0.184,1.177-0.184c0.443,0,0.802,0.052,1.079,0.156
		s0.48,0.235,0.61,0.394c0.13,0.157,0.221,0.356,0.273,0.598c0.029,0.149,0.044,0.42,0.044,0.811v1.172
		c0,0.817,0.019,1.334,0.056,1.551c0.038,0.216,0.111,0.424,0.223,0.622h-0.918C273.012,486.857,272.953,486.644,272.927,486.399
		L272.927,486.399z M272.854,484.437c-0.319,0.13-0.797,0.241-1.436,0.332c-0.361,0.052-0.617,0.11-0.767,0.176
		s-0.265,0.16-0.347,0.286c-0.082,0.125-0.122,0.264-0.122,0.417c0,0.234,0.089,0.43,0.266,0.586s0.437,0.234,0.779,0.234
		c0.338,0,0.64-0.074,0.903-0.222c0.264-0.148,0.458-0.352,0.581-0.608c0.094-0.198,0.142-0.491,0.142-0.879V484.437z
		 M274.758,485.491l0.869-0.137c0.049,0.349,0.186,0.615,0.408,0.801s0.535,0.278,0.936,0.278c0.403,0,0.703-0.082,0.898-0.246
		c0.195-0.165,0.293-0.357,0.293-0.579c0-0.198-0.087-0.354-0.26-0.469c-0.12-0.078-0.42-0.178-0.898-0.298
		c-0.645-0.163-1.091-0.304-1.34-0.422c-0.249-0.119-0.438-0.283-0.566-0.493s-0.193-0.442-0.193-0.696
		c0-0.231,0.053-0.445,0.159-0.642c0.106-0.197,0.25-0.361,0.433-0.491c0.137-0.101,0.322-0.187,0.559-0.256
		c0.236-0.07,0.489-0.105,0.76-0.105c0.406,0,0.764,0.059,1.071,0.176s0.534,0.276,0.681,0.477s0.248,0.468,0.303,0.803
		l-0.859,0.117c-0.039-0.267-0.152-0.476-0.339-0.625s-0.452-0.225-0.794-0.225c-0.403,0-0.691,0.066-0.863,0.2
		c-0.173,0.134-0.26,0.29-0.26,0.469c0,0.114,0.036,0.217,0.107,0.308c0.072,0.095,0.185,0.173,0.338,0.234
		c0.088,0.032,0.346,0.107,0.775,0.225c0.622,0.166,1.057,0.302,1.302,0.408c0.245,0.105,0.438,0.259,0.579,0.461
		c0.14,0.202,0.209,0.452,0.209,0.752c0,0.293-0.085,0.569-0.256,0.828s-0.418,0.459-0.74,0.601s-0.687,0.212-1.094,0.212
		c-0.674,0-1.188-0.14-1.54-0.42S274.855,486.041,274.758,485.491L274.758,485.491z M283.66,485.369l0.908,0.112
		c-0.144,0.53-0.409,0.942-0.797,1.235c-0.387,0.293-0.882,0.439-1.484,0.439c-0.758,0-1.359-0.233-1.804-0.7
		c-0.444-0.468-0.667-1.123-0.667-1.966c0-0.872,0.225-1.55,0.674-2.031s1.032-0.723,1.748-0.723c0.693,0,1.26,0.236,1.699,0.708
		s0.66,1.136,0.66,1.992c0,0.052-0.002,0.13-0.006,0.234h-3.867c0.033,0.569,0.194,1.006,0.484,1.309
		c0.289,0.303,0.65,0.454,1.084,0.454c0.322,0,0.597-0.085,0.824-0.254C283.346,486.011,283.526,485.74,283.66,485.369
		L283.66,485.369z M280.773,483.948h2.896c-0.039-0.437-0.15-0.764-0.332-0.981c-0.28-0.339-0.644-0.508-1.09-0.508
		c-0.403,0-0.742,0.135-1.018,0.405S280.803,483.496,280.773,483.948L280.773,483.948z"/>
	<path id="text11372" fill="#2E3436" d="M238.665,469.944l2.749-7.158h1.021l2.93,7.158h-1.079l-0.835-2.168h-2.993l-0.786,2.168
		H238.665z M240.73,467.005h2.427l-0.747-1.982c-0.228-0.603-0.397-1.097-0.508-1.484c-0.091,0.459-0.22,0.915-0.386,1.367
		L240.73,467.005z M249.324,471.932v-2.539c-0.137,0.192-0.328,0.352-0.574,0.479s-0.507,0.19-0.784,0.19
		c-0.615,0-1.145-0.246-1.589-0.737s-0.667-1.165-0.667-2.021c0-0.521,0.09-0.988,0.271-1.401s0.443-0.727,0.786-0.939
		c0.343-0.214,0.72-0.32,1.13-0.32c0.641,0,1.146,0.271,1.514,0.811v-0.693h0.791v7.173H249.324z M246.614,467.337
		c0,0.667,0.14,1.168,0.42,1.502c0.28,0.333,0.615,0.5,1.006,0.5c0.375,0,0.697-0.158,0.967-0.476s0.405-0.801,0.405-1.448
		c0-0.69-0.143-1.209-0.427-1.558s-0.619-0.522-1.003-0.522c-0.381,0-0.704,0.162-0.969,0.486
		C246.747,466.145,246.614,466.65,246.614,467.337L246.614,467.337z M254.983,469.944v-0.762c-0.404,0.586-0.952,0.879-1.646,0.879
		c-0.306,0-0.592-0.059-0.857-0.176s-0.462-0.265-0.591-0.441c-0.128-0.178-0.219-0.396-0.271-0.652
		c-0.036-0.173-0.054-0.446-0.054-0.82v-3.213h0.879v2.876c0,0.459,0.018,0.769,0.054,0.928c0.055,0.231,0.172,0.413,0.352,0.545
		s0.4,0.197,0.664,0.197s0.511-0.067,0.742-0.202c0.231-0.136,0.395-0.319,0.491-0.552c0.096-0.233,0.144-0.571,0.144-1.014v-2.778
		h0.879v5.186H254.983z M260.701,468.274l0.908,0.112c-0.143,0.53-0.409,0.942-0.796,1.235s-0.882,0.439-1.484,0.439
		c-0.758,0-1.36-0.233-1.804-0.7c-0.444-0.468-0.667-1.123-0.667-1.966c0-0.872,0.225-1.55,0.674-2.031s1.032-0.723,1.748-0.723
		c0.693,0,1.26,0.236,1.699,0.708s0.659,1.136,0.659,1.992c0,0.052-0.001,0.13-0.005,0.234h-3.867
		c0.033,0.569,0.194,1.006,0.483,1.309s0.651,0.454,1.084,0.454c0.322,0,0.597-0.085,0.825-0.254S260.567,468.646,260.701,468.274
		L260.701,468.274z M257.815,466.854h2.896c-0.039-0.437-0.15-0.764-0.332-0.981c-0.28-0.339-0.643-0.508-1.089-0.508
		c-0.404,0-0.743,0.135-1.018,0.405S257.844,466.401,257.815,466.854L257.815,466.854z M262.39,467.352
		c0-0.96,0.267-1.672,0.801-2.134c0.446-0.384,0.99-0.576,1.631-0.576c0.713,0,1.295,0.233,1.748,0.701
		c0.453,0.467,0.679,1.112,0.679,1.936c0,0.667-0.1,1.192-0.3,1.575c-0.2,0.382-0.492,0.679-0.874,0.891s-0.8,0.317-1.252,0.317
		c-0.726,0-1.312-0.232-1.76-0.698S262.39,468.228,262.39,467.352L262.39,467.352z M263.293,467.352
		c0,0.664,0.145,1.161,0.435,1.492c0.29,0.33,0.654,0.495,1.094,0.495c0.436,0,0.799-0.166,1.089-0.498s0.435-0.838,0.435-1.519
		c0-0.642-0.146-1.127-0.437-1.457c-0.292-0.331-0.653-0.496-1.086-0.496c-0.439,0-0.804,0.164-1.094,0.493
		S263.293,466.688,263.293,467.352L263.293,467.352z M271.682,469.944v-0.762c-0.404,0.586-0.952,0.879-1.646,0.879
		c-0.306,0-0.592-0.059-0.857-0.176s-0.462-0.265-0.591-0.441c-0.128-0.178-0.219-0.396-0.271-0.652
		c-0.036-0.173-0.054-0.446-0.054-0.82v-3.213h0.879v2.876c0,0.459,0.018,0.769,0.054,0.928c0.055,0.231,0.172,0.413,0.352,0.545
		s0.4,0.197,0.664,0.197s0.511-0.067,0.742-0.202c0.231-0.136,0.395-0.319,0.491-0.552c0.096-0.233,0.144-0.571,0.144-1.014v-2.778
		h0.879v5.186H271.682z M273.499,468.397l0.869-0.137c0.049,0.349,0.186,0.615,0.408,0.801s0.535,0.278,0.936,0.278
		c0.403,0,0.703-0.082,0.898-0.246c0.195-0.165,0.293-0.357,0.293-0.579c0-0.198-0.087-0.354-0.26-0.469
		c-0.12-0.078-0.42-0.178-0.898-0.298c-0.645-0.163-1.091-0.304-1.34-0.422c-0.249-0.119-0.438-0.283-0.566-0.493
		c-0.128-0.21-0.193-0.442-0.193-0.696c0-0.231,0.053-0.445,0.159-0.642c0.106-0.197,0.25-0.361,0.433-0.491
		c0.137-0.101,0.322-0.187,0.559-0.256c0.236-0.07,0.489-0.105,0.76-0.105c0.406,0,0.764,0.059,1.071,0.176s0.534,0.276,0.681,0.477
		s0.248,0.468,0.303,0.803l-0.859,0.117c-0.039-0.267-0.152-0.476-0.339-0.625s-0.452-0.225-0.794-0.225
		c-0.403,0-0.691,0.066-0.863,0.2c-0.173,0.134-0.26,0.29-0.26,0.469c0,0.114,0.036,0.217,0.107,0.308
		c0.072,0.095,0.185,0.173,0.338,0.234c0.088,0.032,0.346,0.107,0.775,0.225c0.622,0.166,1.057,0.302,1.302,0.408
		c0.245,0.105,0.438,0.259,0.579,0.461c0.14,0.202,0.209,0.452,0.209,0.752c0,0.293-0.085,0.569-0.256,0.828
		s-0.418,0.459-0.74,0.601s-0.687,0.212-1.094,0.212c-0.674,0-1.188-0.14-1.54-0.42
		C273.822,469.361,273.596,468.946,273.499,468.397L273.499,468.397z M281.623,471.932v-7.173h0.801v0.674
		c0.189-0.264,0.402-0.461,0.641-0.593c0.237-0.132,0.525-0.198,0.863-0.198c0.443,0,0.834,0.114,1.172,0.342
		c0.339,0.228,0.595,0.55,0.768,0.965c0.172,0.415,0.258,0.869,0.258,1.364c0,0.53-0.095,1.009-0.285,1.434s-0.467,0.75-0.83,0.977
		c-0.363,0.226-0.744,0.339-1.145,0.339c-0.293,0-0.557-0.062-0.789-0.186s-0.424-0.28-0.574-0.469v2.524H281.623z M282.42,467.381
		c0,0.667,0.135,1.16,0.404,1.479c0.271,0.319,0.598,0.479,0.982,0.479c0.391,0,0.725-0.165,1.003-0.495
		c0.278-0.331,0.417-0.843,0.417-1.536c0-0.661-0.135-1.155-0.407-1.484s-0.597-0.493-0.974-0.493c-0.375,0-0.706,0.175-0.994,0.525
		C282.563,466.205,282.42,466.714,282.42,467.381L282.42,467.381z M287.189,469.944v-7.158h0.879v2.568
		c0.41-0.476,0.928-0.713,1.553-0.713c0.385,0,0.719,0.076,1.002,0.228s0.485,0.36,0.607,0.627s0.184,0.654,0.184,1.162v3.286
		h-0.879v-3.286c0-0.439-0.096-0.759-0.286-0.959s-0.46-0.301-0.808-0.301c-0.261,0-0.506,0.067-0.735,0.203
		c-0.229,0.135-0.394,0.317-0.491,0.549s-0.146,0.55-0.146,0.957v2.837H287.189z M296.141,469.305
		c-0.326,0.276-0.639,0.472-0.94,0.586s-0.624,0.171-0.97,0.171c-0.569,0-1.007-0.139-1.312-0.417
		c-0.307-0.278-0.459-0.635-0.459-1.067c0-0.254,0.057-0.485,0.173-0.695s0.267-0.379,0.454-0.506s0.398-0.223,0.633-0.288
		c0.172-0.046,0.433-0.09,0.781-0.132c0.709-0.085,1.231-0.186,1.566-0.303c0.004-0.12,0.006-0.197,0.006-0.229
		c0-0.358-0.084-0.61-0.25-0.757c-0.225-0.198-0.558-0.298-1-0.298c-0.414,0-0.719,0.072-0.916,0.218
		c-0.197,0.145-0.343,0.4-0.438,0.769l-0.859-0.117c0.078-0.368,0.207-0.665,0.387-0.891c0.179-0.227,0.438-0.4,0.775-0.522
		c0.339-0.122,0.731-0.184,1.178-0.184c0.442,0,0.802,0.052,1.078,0.156c0.277,0.104,0.48,0.235,0.611,0.394
		c0.13,0.157,0.221,0.356,0.273,0.598c0.029,0.149,0.043,0.42,0.043,0.811v1.172c0,0.817,0.02,1.334,0.057,1.551
		c0.037,0.216,0.111,0.424,0.223,0.622h-0.918C296.225,469.762,296.166,469.549,296.141,469.305L296.141,469.305z M296.066,467.342
		c-0.318,0.13-0.797,0.241-1.436,0.332c-0.361,0.052-0.616,0.11-0.766,0.176c-0.15,0.065-0.266,0.16-0.348,0.286
		c-0.081,0.125-0.121,0.264-0.121,0.417c0,0.234,0.088,0.43,0.266,0.586s0.438,0.234,0.779,0.234c0.338,0,0.639-0.074,0.902-0.222
		c0.264-0.148,0.458-0.352,0.582-0.608c0.094-0.198,0.141-0.491,0.141-0.879V467.342z M297.971,468.397l0.869-0.137
		c0.049,0.349,0.186,0.615,0.408,0.801s0.535,0.278,0.936,0.278c0.403,0,0.703-0.082,0.898-0.246
		c0.195-0.165,0.293-0.357,0.293-0.579c0-0.198-0.087-0.354-0.26-0.469c-0.12-0.078-0.42-0.178-0.898-0.298
		c-0.645-0.163-1.091-0.304-1.34-0.422c-0.249-0.119-0.438-0.283-0.566-0.493s-0.193-0.442-0.193-0.696
		c0-0.231,0.053-0.445,0.159-0.642c0.106-0.197,0.25-0.361,0.433-0.491c0.137-0.101,0.322-0.187,0.559-0.256
		c0.236-0.07,0.489-0.105,0.76-0.105c0.406,0,0.764,0.059,1.071,0.176s0.534,0.276,0.681,0.477s0.248,0.468,0.303,0.803
		l-0.859,0.117c-0.039-0.267-0.152-0.476-0.339-0.625s-0.452-0.225-0.794-0.225c-0.403,0-0.691,0.066-0.863,0.2
		c-0.173,0.134-0.26,0.29-0.26,0.469c0,0.114,0.036,0.217,0.107,0.308c0.072,0.095,0.185,0.173,0.338,0.234
		c0.088,0.032,0.346,0.107,0.775,0.225c0.622,0.166,1.057,0.302,1.302,0.408c0.245,0.105,0.438,0.259,0.579,0.461
		c0.14,0.202,0.209,0.452,0.209,0.752c0,0.293-0.085,0.569-0.256,0.828s-0.418,0.459-0.74,0.601s-0.687,0.212-1.094,0.212
		c-0.674,0-1.188-0.14-1.54-0.42S298.068,468.946,297.971,468.397L297.971,468.397z M306.873,468.274l0.908,0.112
		c-0.144,0.53-0.409,0.942-0.797,1.235c-0.387,0.293-0.882,0.439-1.484,0.439c-0.758,0-1.359-0.233-1.804-0.7
		c-0.444-0.468-0.667-1.123-0.667-1.966c0-0.872,0.225-1.55,0.674-2.031s1.032-0.723,1.748-0.723c0.693,0,1.26,0.236,1.699,0.708
		s0.66,1.136,0.66,1.992c0,0.052-0.002,0.13-0.006,0.234h-3.867c0.033,0.569,0.194,1.006,0.484,1.309
		c0.289,0.303,0.65,0.454,1.084,0.454c0.322,0,0.597-0.085,0.824-0.254C306.559,468.916,306.739,468.646,306.873,468.274
		L306.873,468.274z M303.986,466.854h2.896c-0.039-0.437-0.15-0.764-0.332-0.981c-0.28-0.339-0.644-0.508-1.09-0.508
		c-0.403,0-0.742,0.135-1.018,0.405S304.016,466.401,303.986,466.854L303.986,466.854z"/>
	<path id="text11376" fill="#2E3436" d="M359.203,511.878v-7.158h3.174c0.638,0,1.123,0.064,1.455,0.192
		c0.332,0.129,0.598,0.356,0.795,0.682c0.199,0.325,0.299,0.686,0.299,1.079c0,0.508-0.164,0.936-0.494,1.284
		c-0.328,0.349-0.836,0.569-1.523,0.664c0.252,0.12,0.441,0.239,0.572,0.356c0.276,0.254,0.539,0.571,0.785,0.952l1.246,1.948
		h-1.191l-0.947-1.489c-0.277-0.43-0.505-0.759-0.684-0.986c-0.18-0.228-0.34-0.388-0.481-0.479s-0.286-0.154-0.433-0.19
		c-0.107-0.022-0.283-0.034-0.527-0.034h-1.098v3.179H359.203z M360.15,507.879h2.035c0.434,0,0.771-0.045,1.016-0.135
		c0.244-0.089,0.43-0.232,0.557-0.43c0.127-0.196,0.191-0.41,0.191-0.642c0-0.339-0.123-0.617-0.369-0.835s-0.634-0.327-1.164-0.327
		h-2.266V507.879z M366.404,511.878v-7.158h0.973l3.76,5.62v-5.62h0.908v7.158h-0.973l-3.76-5.625v5.625H366.404z M372.855,511.878
		l2.748-7.158h1.021l2.93,7.158h-1.08l-0.834-2.168h-2.994l-0.785,2.168H372.855z M374.92,508.939h2.428l-0.748-1.982
		c-0.227-0.603-0.396-1.097-0.508-1.484c-0.09,0.459-0.219,0.915-0.385,1.367L374.92,508.939z M383.094,511.878v-7.158h2.701
		c0.475,0,0.838,0.022,1.088,0.068c0.352,0.059,0.646,0.17,0.885,0.334c0.237,0.165,0.429,0.396,0.573,0.691
		c0.146,0.296,0.218,0.622,0.218,0.977c0,0.608-0.193,1.124-0.582,1.545c-0.387,0.422-1.086,0.633-2.1,0.633h-1.836v2.91H383.094z
		 M384.041,508.123h1.852c0.611,0,1.047-0.114,1.303-0.342c0.258-0.228,0.387-0.549,0.387-0.962c0-0.3-0.076-0.556-0.228-0.77
		c-0.151-0.213-0.351-0.354-0.599-0.422c-0.158-0.042-0.453-0.063-0.883-0.063h-1.832V508.123z M393.211,510.208l0.908,0.112
		c-0.143,0.53-0.408,0.942-0.795,1.235c-0.388,0.293-0.883,0.439-1.484,0.439c-0.759,0-1.36-0.233-1.805-0.701
		c-0.444-0.467-0.666-1.122-0.666-1.965c0-0.872,0.225-1.55,0.674-2.031s1.031-0.723,1.748-0.723c0.693,0,1.26,0.236,1.699,0.708
		s0.658,1.136,0.658,1.992c0,0.052-0.001,0.13-0.004,0.234h-3.867c0.032,0.569,0.193,1.006,0.482,1.309
		c0.291,0.303,0.652,0.454,1.084,0.454c0.322,0,0.598-0.085,0.826-0.254C392.897,510.85,393.078,510.579,393.211,510.208
		L393.211,510.208z M390.326,508.787h2.895c-0.039-0.437-0.148-0.764-0.332-0.981c-0.279-0.339-0.643-0.508-1.088-0.508
		c-0.404,0-0.743,0.135-1.019,0.405C390.508,507.974,390.355,508.335,390.326,508.787L390.326,508.787z M395.209,511.878v-7.158
		h0.879v7.158H395.209z M397.436,511.878v-7.158h0.879v7.158H397.436z M403.23,510.208l0.908,0.112
		c-0.143,0.53-0.408,0.942-0.795,1.235c-0.388,0.293-0.883,0.439-1.484,0.439c-0.759,0-1.36-0.233-1.805-0.701
		c-0.444-0.467-0.666-1.122-0.666-1.965c0-0.872,0.225-1.55,0.674-2.031s1.031-0.723,1.748-0.723c0.693,0,1.26,0.236,1.699,0.708
		s0.658,1.136,0.658,1.992c0,0.052-0.001,0.13-0.004,0.234h-3.867c0.032,0.569,0.193,1.006,0.482,1.309
		c0.291,0.303,0.652,0.454,1.084,0.454c0.322,0,0.598-0.085,0.826-0.254C402.917,510.85,403.098,510.579,403.23,510.208
		L403.23,510.208z M400.346,508.787h2.895c-0.039-0.437-0.148-0.764-0.332-0.981c-0.279-0.339-0.643-0.508-1.088-0.508
		c-0.404,0-0.743,0.135-1.019,0.405C400.527,507.974,400.375,508.335,400.346,508.787L400.346,508.787z M407.166,511.092
		l0.127,0.776c-0.246,0.052-0.469,0.078-0.664,0.078c-0.318,0-0.566-0.051-0.742-0.151s-0.299-0.233-0.371-0.398
		c-0.07-0.164-0.107-0.51-0.107-1.037v-2.983h-0.645v-0.684h0.645v-1.284l0.875-0.527v1.812h0.883v0.684h-0.883v3.032
		c0,0.251,0.016,0.412,0.046,0.483c0.031,0.071,0.081,0.129,0.151,0.171s0.17,0.063,0.301,0.063
		C406.879,511.126,407.008,511.114,407.166,511.092L407.166,511.092z"/>
	<path id="path11380" fill="none" stroke="#2E3436" d="M339.828,487.57l16.682,26.69h39.56l0,0"/>
	<path id="path11384" fill="none" stroke="#2E3436" d="M269.114,509.121h-34.442l-49.375-45.202"/>
	<path id="path11386" fill="none" stroke="#2E3436" d="M268.607,489.579h-33.936l-49.662-51.331"/>
	<path id="path11388" fill="none" stroke="#2E3436" d="M269.114,472.363h-34.442l-49.375-56.576"/>
</g>
<g>
	<path d="M144.062,7.828v-7.874h1.043v7.874H144.062z"/>
	<path d="M146.43,6.126l0.957-0.15c0.053,0.383,0.203,0.677,0.448,0.881s0.588,0.306,1.028,0.306c0.444,0,0.773-0.09,0.988-0.271
		c0.215-0.181,0.322-0.393,0.322-0.636c0-0.218-0.095-0.39-0.285-0.516c-0.132-0.086-0.461-0.195-0.988-0.328
		c-0.709-0.179-1.2-0.334-1.474-0.465c-0.274-0.13-0.481-0.312-0.623-0.542c-0.142-0.231-0.212-0.486-0.212-0.766
		c0-0.254,0.058-0.49,0.174-0.706c0.116-0.217,0.275-0.397,0.476-0.54c0.15-0.111,0.355-0.205,0.615-0.282
		c0.26-0.077,0.538-0.115,0.835-0.115c0.447,0,0.841,0.064,1.179,0.193c0.339,0.129,0.589,0.304,0.749,0.523
		c0.162,0.221,0.272,0.515,0.334,0.884l-0.945,0.129c-0.043-0.293-0.168-0.523-0.374-0.688s-0.497-0.247-0.872-0.247
		c-0.444,0-0.762,0.073-0.951,0.22s-0.285,0.319-0.285,0.516c0,0.125,0.04,0.238,0.119,0.338c0.078,0.104,0.202,0.19,0.37,0.258
		c0.097,0.036,0.382,0.118,0.854,0.247c0.684,0.183,1.16,0.332,1.431,0.448c0.271,0.117,0.482,0.286,0.637,0.508
		s0.231,0.498,0.231,0.827c0,0.322-0.095,0.626-0.282,0.91c-0.188,0.285-0.46,0.505-0.813,0.661
		c-0.355,0.155-0.756,0.233-1.203,0.233c-0.742,0-1.307-0.154-1.695-0.462S146.537,6.731,146.43,6.126z"/>
	<path d="M151.957,4.976c0-1.056,0.294-1.839,0.881-2.347c0.49-0.422,1.089-0.634,1.794-0.634c0.784,0,1.425,0.257,1.923,0.771
		c0.498,0.514,0.746,1.224,0.746,2.13c0,0.734-0.109,1.312-0.33,1.732c-0.22,0.42-0.54,0.747-0.961,0.98s-0.88,0.349-1.378,0.349
		c-0.799,0-1.444-0.256-1.937-0.768S151.957,5.94,151.957,4.976z M152.951,4.976c0,0.73,0.159,1.277,0.478,1.641
		c0.318,0.363,0.72,0.545,1.203,0.545c0.479,0,0.879-0.183,1.198-0.548c0.318-0.365,0.478-0.922,0.478-1.67
		c0-0.706-0.16-1.24-0.48-1.603c-0.32-0.364-0.719-0.545-1.195-0.545c-0.483,0-0.885,0.181-1.203,0.542S152.951,4.246,152.951,4.976
		z"/>
	<path d="M158.435,10.014v-7.89h0.881v0.741c0.208-0.29,0.442-0.508,0.704-0.652c0.262-0.146,0.578-0.218,0.95-0.218
		c0.487,0,0.917,0.125,1.289,0.376c0.373,0.25,0.654,0.604,0.844,1.061c0.189,0.457,0.285,0.957,0.285,1.501
		c0,0.583-0.105,1.109-0.314,1.577c-0.21,0.467-0.514,0.825-0.913,1.074c-0.399,0.249-0.819,0.373-1.26,0.373
		c-0.322,0-0.611-0.068-0.867-0.204s-0.467-0.308-0.632-0.516v2.777H158.435z M159.311,5.009c0,0.734,0.148,1.276,0.446,1.627
		c0.297,0.351,0.656,0.526,1.079,0.526c0.43,0,0.798-0.182,1.104-0.545c0.307-0.364,0.46-0.927,0.46-1.689
		c0-0.727-0.15-1.271-0.449-1.633s-0.656-0.542-1.071-0.542c-0.412,0-0.776,0.192-1.093,0.578
		C159.469,3.715,159.311,4.275,159.311,5.009z"/>
	<path d="M164.543,7.828V2.124h0.869v0.865c0.223-0.405,0.428-0.671,0.615-0.8c0.188-0.129,0.395-0.193,0.621-0.193
		c0.325,0,0.656,0.104,0.993,0.312l-0.333,0.897c-0.236-0.14-0.473-0.209-0.709-0.209c-0.211,0-0.401,0.063-0.569,0.19
		c-0.168,0.127-0.288,0.304-0.36,0.529c-0.107,0.344-0.16,0.72-0.16,1.128v2.986H164.543z"/>
	<path d="M167.856,4.976c0-1.056,0.294-1.839,0.881-2.347c0.49-0.422,1.089-0.634,1.794-0.634c0.784,0,1.425,0.257,1.923,0.771
		c0.498,0.514,0.746,1.224,0.746,2.13c0,0.734-0.109,1.312-0.33,1.732c-0.22,0.42-0.54,0.747-0.961,0.98s-0.88,0.349-1.378,0.349
		c-0.799,0-1.444-0.256-1.937-0.768S167.856,5.94,167.856,4.976z M168.85,4.976c0,0.73,0.159,1.277,0.478,1.641
		c0.318,0.363,0.72,0.545,1.203,0.545c0.479,0,0.879-0.183,1.198-0.548c0.318-0.365,0.478-0.922,0.478-1.67
		c0-0.706-0.16-1.24-0.48-1.603c-0.32-0.364-0.719-0.545-1.195-0.545c-0.483,0-0.885,0.181-1.203,0.542S168.85,4.246,168.85,4.976z"
		/>
	<path d="M174.333,10.014v-7.89h0.881v0.741c0.208-0.29,0.442-0.508,0.704-0.652c0.262-0.146,0.578-0.218,0.95-0.218
		c0.487,0,0.917,0.125,1.289,0.376c0.373,0.25,0.654,0.604,0.844,1.061c0.189,0.457,0.285,0.957,0.285,1.501
		c0,0.583-0.105,1.109-0.314,1.577c-0.21,0.467-0.514,0.825-0.913,1.074c-0.399,0.249-0.819,0.373-1.26,0.373
		c-0.322,0-0.611-0.068-0.867-0.204s-0.467-0.308-0.632-0.516v2.777H174.333z M175.209,5.009c0,0.734,0.148,1.276,0.446,1.627
		c0.297,0.351,0.656,0.526,1.079,0.526c0.43,0,0.798-0.182,1.104-0.545c0.307-0.364,0.46-0.927,0.46-1.689
		c0-0.727-0.15-1.271-0.449-1.633s-0.656-0.542-1.071-0.542c-0.412,0-0.776,0.192-1.093,0.578
		C175.367,3.715,175.209,4.275,175.209,5.009z"/>
	<path d="M184.174,7.125c-0.358,0.304-0.703,0.519-1.034,0.645s-0.687,0.188-1.065,0.188c-0.627,0-1.108-0.153-1.445-0.459
		c-0.337-0.307-0.505-0.698-0.505-1.174c0-0.279,0.063-0.534,0.19-0.766c0.127-0.23,0.294-0.416,0.5-0.556s0.438-0.245,0.695-0.317
		c0.189-0.05,0.477-0.099,0.859-0.145c0.78-0.093,1.355-0.204,1.725-0.333c0.003-0.132,0.005-0.217,0.005-0.252
		c0-0.394-0.091-0.671-0.274-0.833c-0.246-0.218-0.613-0.328-1.101-0.328c-0.455,0-0.79,0.08-1.007,0.239
		c-0.217,0.16-0.377,0.441-0.48,0.846l-0.945-0.129c0.086-0.405,0.227-0.731,0.424-0.98c0.197-0.249,0.481-0.44,0.854-0.575
		c0.373-0.134,0.805-0.201,1.295-0.201c0.487,0,0.883,0.057,1.188,0.172c0.304,0.115,0.527,0.259,0.671,0.433
		c0.144,0.173,0.243,0.393,0.301,0.658c0.032,0.165,0.048,0.462,0.048,0.892v1.289c0,0.899,0.021,1.467,0.062,1.706
		c0.041,0.238,0.122,0.466,0.244,0.685h-1.01C184.267,7.628,184.202,7.393,184.174,7.125z M184.094,4.966
		c-0.352,0.143-0.878,0.265-1.58,0.365c-0.396,0.057-0.678,0.122-0.843,0.193s-0.292,0.176-0.382,0.314
		c-0.089,0.138-0.134,0.291-0.134,0.459c0,0.258,0.098,0.473,0.293,0.645s0.48,0.258,0.856,0.258c0.372,0,0.703-0.082,0.994-0.245
		c0.289-0.163,0.503-0.386,0.639-0.668c0.104-0.218,0.156-0.541,0.156-0.967V4.966z"/>
	<path d="M186.569,7.828V2.124h0.871v0.811c0.418-0.626,1.023-0.94,1.814-0.94c0.344,0,0.66,0.062,0.948,0.186
		c0.288,0.123,0.504,0.285,0.647,0.486s0.243,0.438,0.301,0.714c0.036,0.179,0.054,0.492,0.054,0.94v3.507h-0.967v-3.47
		c0-0.394-0.038-0.688-0.112-0.884c-0.076-0.195-0.209-0.351-0.4-0.467c-0.191-0.117-0.416-0.175-0.674-0.175
		c-0.412,0-0.768,0.131-1.066,0.392s-0.449,0.757-0.449,1.488v3.115H186.569z"/>
	<path d="M192.326,4.976c0-1.056,0.294-1.839,0.881-2.347c0.49-0.422,1.089-0.634,1.794-0.634c0.784,0,1.425,0.257,1.923,0.771
		c0.498,0.514,0.746,1.224,0.746,2.13c0,0.734-0.109,1.312-0.33,1.732c-0.22,0.42-0.54,0.747-0.961,0.98s-0.88,0.349-1.378,0.349
		c-0.799,0-1.444-0.256-1.937-0.768S192.326,5.94,192.326,4.976z M193.32,4.976c0,0.73,0.159,1.277,0.478,1.641
		c0.318,0.363,0.72,0.545,1.203,0.545c0.479,0,0.879-0.183,1.198-0.548c0.318-0.365,0.478-0.922,0.478-1.67
		c0-0.706-0.16-1.24-0.48-1.603c-0.32-0.364-0.719-0.545-1.195-0.545c-0.483,0-0.885,0.181-1.203,0.542S193.32,4.246,193.32,4.976z"
		/>
	<path d="M198.782,7.828v-7.874h0.967v7.874H198.782z"/>
	<path d="M204.304,10.014v-7.89h0.881v0.741c0.208-0.29,0.442-0.508,0.704-0.652c0.262-0.146,0.578-0.218,0.95-0.218
		c0.487,0,0.917,0.125,1.289,0.376c0.373,0.25,0.654,0.604,0.844,1.061c0.189,0.457,0.285,0.957,0.285,1.501
		c0,0.583-0.105,1.109-0.314,1.577c-0.21,0.467-0.514,0.825-0.913,1.074c-0.399,0.249-0.819,0.373-1.26,0.373
		c-0.322,0-0.611-0.068-0.867-0.204s-0.467-0.308-0.632-0.516v2.777H204.304z M205.18,5.009c0,0.734,0.148,1.276,0.446,1.627
		c0.297,0.351,0.656,0.526,1.079,0.526c0.43,0,0.798-0.182,1.104-0.545c0.307-0.364,0.46-0.927,0.46-1.689
		c0-0.727-0.15-1.271-0.449-1.633s-0.656-0.542-1.071-0.542c-0.412,0-0.776,0.192-1.093,0.578
		C205.338,3.715,205.18,4.275,205.18,5.009z"/>
	<path d="M210.412,7.828V2.124h0.869v0.865c0.223-0.405,0.428-0.671,0.615-0.8c0.188-0.129,0.395-0.193,0.621-0.193
		c0.325,0,0.656,0.104,0.993,0.312l-0.333,0.897c-0.236-0.14-0.473-0.209-0.709-0.209c-0.211,0-0.401,0.063-0.569,0.19
		c-0.168,0.127-0.288,0.304-0.36,0.529c-0.107,0.344-0.16,0.72-0.16,1.128v2.986H210.412z"/>
	<path d="M217.989,5.991l0.999,0.124c-0.157,0.583-0.449,1.037-0.875,1.359c-0.427,0.322-0.971,0.483-1.633,0.483
		c-0.835,0-1.496-0.257-1.985-0.771c-0.488-0.514-0.733-1.235-0.733-2.162c0-0.959,0.248-1.705,0.742-2.234s1.135-0.795,1.922-0.795
		c0.764,0,1.387,0.26,1.869,0.779c0.484,0.519,0.726,1.25,0.726,2.191c0,0.057-0.002,0.143-0.005,0.258h-4.254
		c0.035,0.626,0.213,1.106,0.531,1.439s0.716,0.5,1.192,0.5c0.354,0,0.657-0.093,0.907-0.279
		C217.644,6.697,217.843,6.4,217.989,5.991z M214.815,4.428H218c-0.043-0.48-0.165-0.84-0.365-1.08
		c-0.308-0.373-0.707-0.559-1.197-0.559c-0.444,0-0.817,0.148-1.12,0.446S214.848,3.931,214.815,4.428z"/>
	<path d="M223.925,5.739l0.951,0.124c-0.104,0.655-0.37,1.168-0.798,1.539c-0.428,0.37-0.954,0.556-1.577,0.556
		c-0.78,0-1.407-0.255-1.882-0.766c-0.475-0.51-0.712-1.241-0.712-2.194c0-0.616,0.102-1.155,0.307-1.617
		c0.203-0.462,0.515-0.809,0.932-1.039c0.417-0.231,0.871-0.347,1.361-0.347c0.619,0,1.126,0.157,1.52,0.47
		c0.395,0.313,0.646,0.758,0.758,1.335l-0.939,0.145c-0.09-0.383-0.248-0.671-0.476-0.865s-0.503-0.29-0.825-0.29
		c-0.486,0-0.882,0.175-1.187,0.523c-0.305,0.35-0.456,0.902-0.456,1.657c0,0.766,0.146,1.323,0.439,1.67
		c0.294,0.347,0.678,0.521,1.15,0.521c0.379,0,0.696-0.116,0.95-0.349S223.857,6.222,223.925,5.739z"/>
	<path d="M225.708,1.066v-1.112h0.967v1.112H225.708z M225.708,7.828V2.124h0.967v5.704H225.708z"/>
	<path d="M228.147,10.014v-7.89h0.881v0.741c0.208-0.29,0.442-0.508,0.704-0.652c0.262-0.146,0.578-0.218,0.95-0.218
		c0.487,0,0.917,0.125,1.289,0.376c0.373,0.25,0.654,0.604,0.844,1.061c0.189,0.457,0.285,0.957,0.285,1.501
		c0,0.583-0.105,1.109-0.314,1.577c-0.21,0.467-0.514,0.825-0.913,1.074c-0.399,0.249-0.819,0.373-1.26,0.373
		c-0.322,0-0.611-0.068-0.867-0.204s-0.467-0.308-0.632-0.516v2.777H228.147z M229.023,5.009c0,0.734,0.148,1.276,0.446,1.627
		c0.297,0.351,0.656,0.526,1.079,0.526c0.43,0,0.798-0.182,1.104-0.545c0.307-0.364,0.46-0.927,0.46-1.689
		c0-0.727-0.15-1.271-0.449-1.633s-0.656-0.542-1.071-0.542c-0.412,0-0.776,0.192-1.093,0.578
		C229.181,3.715,229.023,4.275,229.023,5.009z"/>
	<path d="M234.27,1.066v-1.112h0.967v1.112H234.27z M234.27,7.828V2.124h0.967v5.704H234.27z"/>
	<path d="M238.819,6.964l0.14,0.854c-0.272,0.057-0.516,0.086-0.73,0.086c-0.351,0-0.623-0.056-0.816-0.167
		s-0.329-0.257-0.408-0.438c-0.079-0.181-0.118-0.561-0.118-1.141V2.876h-0.709V2.124h0.709V0.712l0.961-0.58v1.993h0.973v0.752
		h-0.973v3.335c0,0.276,0.018,0.453,0.052,0.532s0.089,0.142,0.166,0.188s0.188,0.07,0.331,0.07
		C238.502,7.001,238.643,6.989,238.819,6.964z"/>
	<path d="M243.486,7.125c-0.358,0.304-0.703,0.519-1.034,0.645s-0.687,0.188-1.065,0.188c-0.627,0-1.108-0.153-1.445-0.459
		c-0.337-0.307-0.505-0.698-0.505-1.174c0-0.279,0.063-0.534,0.19-0.766c0.127-0.23,0.294-0.416,0.5-0.556s0.438-0.245,0.695-0.317
		c0.189-0.05,0.477-0.099,0.859-0.145c0.78-0.093,1.355-0.204,1.725-0.333c0.003-0.132,0.005-0.217,0.005-0.252
		c0-0.394-0.091-0.671-0.274-0.833c-0.246-0.218-0.613-0.328-1.101-0.328c-0.455,0-0.79,0.08-1.007,0.239
		c-0.217,0.16-0.377,0.441-0.48,0.846l-0.945-0.129c0.086-0.405,0.227-0.731,0.424-0.98c0.197-0.249,0.481-0.44,0.854-0.575
		c0.373-0.134,0.805-0.201,1.295-0.201c0.487,0,0.883,0.057,1.188,0.172c0.304,0.115,0.527,0.259,0.671,0.433
		c0.144,0.173,0.243,0.393,0.301,0.658c0.032,0.165,0.048,0.462,0.048,0.892v1.289c0,0.899,0.021,1.467,0.062,1.706
		c0.041,0.238,0.122,0.466,0.244,0.685h-1.01C243.579,7.628,243.515,7.393,243.486,7.125z M243.406,4.966
		c-0.352,0.143-0.878,0.265-1.58,0.365c-0.396,0.057-0.678,0.122-0.843,0.193s-0.292,0.176-0.382,0.314
		c-0.089,0.138-0.134,0.291-0.134,0.459c0,0.258,0.098,0.473,0.293,0.645s0.48,0.258,0.856,0.258c0.372,0,0.703-0.082,0.994-0.245
		c0.289-0.163,0.503-0.386,0.639-0.668c0.104-0.218,0.156-0.541,0.156-0.967V4.966z"/>
	<path d="M247.992,6.964l0.14,0.854c-0.272,0.057-0.516,0.086-0.73,0.086c-0.351,0-0.623-0.056-0.816-0.167
		s-0.329-0.257-0.408-0.438c-0.079-0.181-0.118-0.561-0.118-1.141V2.876h-0.709V2.124h0.709V0.712l0.961-0.58v1.993h0.973v0.752
		h-0.973v3.335c0,0.276,0.018,0.453,0.052,0.532s0.089,0.142,0.166,0.188s0.188,0.07,0.331,0.07
		C247.676,7.001,247.817,6.989,247.992,6.964z"/>
	<path d="M248.944,1.066v-1.112h0.967v1.112H248.944z M248.944,7.828V2.124h0.967v5.704H248.944z"/>
	<path d="M251.022,4.976c0-1.056,0.294-1.839,0.881-2.347c0.49-0.422,1.089-0.634,1.794-0.634c0.784,0,1.425,0.257,1.923,0.771
		c0.498,0.514,0.746,1.224,0.746,2.13c0,0.734-0.109,1.312-0.33,1.732c-0.22,0.42-0.54,0.747-0.961,0.98s-0.88,0.349-1.378,0.349
		c-0.799,0-1.444-0.256-1.937-0.768S251.022,5.94,251.022,4.976z M252.016,4.976c0,0.73,0.159,1.277,0.478,1.641
		c0.318,0.363,0.72,0.545,1.203,0.545c0.479,0,0.879-0.183,1.198-0.548c0.318-0.365,0.478-0.922,0.478-1.67
		c0-0.706-0.16-1.24-0.48-1.603c-0.32-0.364-0.719-0.545-1.195-0.545c-0.483,0-0.885,0.181-1.203,0.542S252.016,4.246,252.016,4.976
		z"/>
	<path d="M257.499,7.828V2.124h0.871v0.811c0.418-0.626,1.023-0.94,1.814-0.94c0.344,0,0.66,0.062,0.948,0.186
		c0.288,0.123,0.504,0.285,0.647,0.486s0.243,0.438,0.301,0.714c0.036,0.179,0.054,0.492,0.054,0.94v3.507h-0.967v-3.47
		c0-0.394-0.038-0.688-0.112-0.884c-0.076-0.195-0.209-0.351-0.4-0.467c-0.191-0.117-0.416-0.175-0.674-0.175
		c-0.412,0-0.768,0.131-1.066,0.392s-0.449,0.757-0.449,1.488v3.115H257.499z"/>
</g>
</svg>
